<?xml version="1.0" encoding="UTF-8" standalone="no"?>
<!-- Created with Inkscape (http://www.inkscape.org/) -->

<svg
   width="31.999998"
   height="31.999998"
   viewBox="0 0 8.4666661 8.4666661"
   version="1.1"
   id="svg1"
   xmlns="http://www.w3.org/2000/svg"
   xmlns:svg="http://www.w3.org/2000/svg">
  <defs
     id="defs1" />
  <g
     id="layer1">
    <rect
       style="fill:#000000;fill-opacity:1;stroke:none;stroke-width:0.264999"
       id="rect1-8"
       width="14.417254"
       height="7.0150309"
       x="-3.3876026"
       y="-3.633538" />
    <ellipse
       style="fill:#098f09;fill-opacity:1;stroke:none;stroke-width:0.305737"
       id="path1"
       cx="4.2333331"
       cy="3.384654"
       rx="2.155"
       ry="2.1547461" />
    <rect
       style="fill:#000000;fill-opacity:1;stroke:none;stroke-width:0.264999"
       id="rect1"
       width="14.417"
       height="7.0150309"
       x="-3.393635"
       y="3.3025308" />
    <path
       style="fill:#3cb844;fill-opacity:1;stroke:none;stroke-width:0.264999"
       d="m 2.8470092,3.3253068 c -0.023201,0.101581 0.020431,0.2167118 0,0.318865 -0.00456,0.022783 -0.083004,0.1644814 -0.091104,0.2049846 -0.00887,0.044333 -0.021193,0.2379893 0,0.2733128 0.016571,0.02762 0.045552,0.045552 0.068328,0.068328 0.022775,0.030368 0.049893,0.057921 0.068328,0.091104 0.019854,0.035739 0.022873,0.079863 0.045552,0.1138804 0.067191,0.1007858 0.2050346,0.1591328 0.1822085,0.2960888 -0.00636,0.038185 0.00241,0.084488 -0.022775,0.1138804 C 2.9451009,4.9836046 2.6846075,5.0835192 2.5509208,5.284049 2.4183057,5.4829717 2.4235829,5.8265358 2.5281446,6.0356596 c 0.1978987,0.3957973 -0.00121,-0.1187395 0.068328,0.1594323 0.0026,0.010417 0.019381,0.012589 0.022776,0.022775 0.010437,0.031311 0.00805,0.1580665 0,0.1822085 -0.030368,0.091104 -0.022776,-0.098696 -0.022776,0.022775"
       id="path2" />
    <path
       style="fill:#3cb844;fill-opacity:1;stroke:none;stroke-width:0.264999"
       d="m 4.1680214,3.2057324 c 0.077946,0.075464 0.098415,0.1815999 0.1138804,0.2847009 0.0058,0.038706 0.016311,0.074951 0.00569,0.1138804 -0.013084,0.04797 -0.061606,0.077007 -0.091104,0.1138803 -0.023238,0.029049 -0.014393,0.03373 -0.034164,0.068328 -0.021225,0.037141 -0.054595,0.084405 -0.079716,0.1195744 -0.00474,0.00663 -0.040519,0.054486 -0.045552,0.068328 -0.00394,0.010851 -0.00289,0.022963 -0.00569,0.034164 -0.018463,0.07385 -0.043599,0.1691986 -0.02847,0.244843 0.01429,0.071445 0.1029514,0.1877251 0.1480444,0.2448428 0.061945,0.078463 0.027393,0.024593 0.091104,0.096798 0.014317,0.016227 0.024974,0.035536 0.039858,0.051246 0.00964,0.010179 0.098168,0.088526 0.1138804,0.1024922 0.055181,0.04905 0.1091411,0.106925 0.1708205,0.1480447 0.060676,0.04045 0.1215141,0.076944 0.1879026,0.1081863 0.017081,0.00759 0.034164,0.015184 0.051246,0.022775 0.013287,0.0038 0.027158,0.00595 0.039858,0.011388 0.014065,0.00603 0.025794,0.016748 0.039858,0.022775 0.015356,0.00658 0.071253,0.018352 0.08541,0.022775 0.015478,0.00484 0.029767,0.013367 0.045552,0.017081 0.01673,0.00394 0.034639,0.00127 0.051246,0.00569 0.012303,0.00328 0.022085,0.013054 0.034164,0.017081 0.0054,0.0018 0.011557,-0.00138 0.017082,0 0.00259,6.614e-4 0.00329,0.00449 0.00569,0.00569 0.029307,0.014653 0.063567,0.030594 0.091104,0.051246 0.022836,0.017126 0.037277,0.042971 0.05694,0.062634 0.045005,0.045006 0.00267,-0.00922 0.039858,0.034164 0.024162,0.02819 0.051246,0.093362 0.051246,0.1309627 0,0.035692 0.00663,0.079983 -0.00569,0.1138803 -0.00378,0.010401 -0.012131,0.018571 -0.017081,0.02847 -0.017719,0.03544 -0.033771,0.079323 -0.062634,0.1081863 -0.00968,0.00968 -0.023215,0.014565 -0.034164,0.022775 -0.054307,0.04073 -0.016767,0.023696 -0.091104,0.062634 -0.020315,0.010641 -0.04234,0.017788 -0.062634,0.02847 -0.015846,0.00834 -0.029946,0.019693 -0.045552,0.02847 -0.052539,0.029553 -0.110794,0.048931 -0.1594326,0.08541 -0.034164,0.025622 0.022775,-0.00569 -0.034164,0.034164 -0.01043,0.0073 -0.023569,0.01002 -0.034164,0.017081 -0.012335,0.00822 -0.022019,0.019968 -0.034164,0.02847 -0.024641,0.017248 -0.021839,0.00324 -0.039858,0.02847 -0.00493,0.00691 -0.00629,0.015986 -0.011388,0.022775 -0.034937,0.046583 -0.012782,-0.0029 -0.039858,0.051246 -0.030429,0.060859 -0.017082,0.2434974 -0.017082,0.3131709 0,0.014891 3.705e-4,0.079716 0.017082,0.079716"
       id="path3" />
    <path
       style="fill:#3cb844;fill-opacity:1;stroke:none;stroke-width:0.264999"
       d="m 5.7794286,3.2512844 c 0,0.032266 0.007,0.065301 0,0.096798 -0.031907,0.1435806 -0.1558028,0.2306106 -0.2562307,0.3245591 -0.025482,0.023839 -0.054666,0.044988 -0.074023,0.074022 -0.01565,0.023477 -0.021418,0.052395 -0.02847,0.079716 -0.055449,0.2148634 0.014891,0.3796107 0.1195744,0.5637078 0.045856,0.080644 0.093183,0.1604803 0.1423504,0.2391489 0.00191,0.00303 0.040219,0.044471 0.034164,0.062634 -0.02663,0.07989 -0.076361,0.1046184 -0.1366562,0.1594326 -0.076104,0.069185 -0.1606788,0.1326618 -0.2220669,0.2163728 -0.02972,0.040527 -0.047152,0.091657 -0.068328,0.1366563 -0.00723,0.015362 -0.017407,0.029447 -0.022775,0.045552 -0.00424,0.012732 -0.00278,0.026757 -0.00569,0.039858 -6.085e-4,0.00273 -0.00835,0.011774 -0.00569,0.017081 0.00306,0.00612 0.00899,0.010673 0.011388,0.017082 0.016738,0.04463 -0.00686,0.012941 0.017081,0.051246 0.00645,0.010316 0.022447,0.027812 0.02847,0.039858 0.00269,0.00537 0.00235,0.012089 0.00569,0.017082 0.00447,0.0067 0.012615,0.010382 0.017081,0.017081 0.023381,0.035071 0.030467,0.1016786 0.034164,0.1423506 0.00303,0.033357 0.00106,0.094133 -0.011388,0.1252683 -0.00352,0.00881 -0.013227,0.014105 -0.017082,0.022775 -0.00393,0.00885 -0.00265,0.019288 -0.00569,0.02847 -0.011845,0.035534 -0.017081,0.039693 -0.017081,0.079716"
       id="path4" />
    <path
       style="fill:#3cb844;fill-opacity:1;stroke:none;stroke-width:0.264999"
       d="m 3.3708588,3.2114265 c 0.018137,0.089965 0.017613,0.1821071 0.022775,0.2733127 0.00344,0.060758 0.00981,0.1213744 0.011388,0.1822087 0.00723,0.2782224 -0.01995,0.2544834 0.039858,0.5409317 0.016574,0.079371 0.038035,0.1582436 0.068328,0.2334548 0.05564,0.1381413 0.081733,0.1461238 0.1423503,0.2448428 0.05212,0.08488 0.1047274,0.1695185 0.1537385,0.2562307 0.025061,0.044337 0.04375,0.092051 0.068328,0.1366565 0.071903,0.1304909 0.1628651,0.2483556 0.1879026,0.3985813 2.911e-4,0.00172 0.00884,0.055731 0.00569,0.068328 -0.00977,0.039088 -0.055112,0.069119 -0.079716,0.096798 -0.017923,0.020161 -0.034502,0.041484 -0.051246,0.062634 -0.019323,0.024408 -0.035951,0.051033 -0.05694,0.074022 -0.027138,0.024672 -0.075578,0.066894 -0.1024922,0.096798 -0.2332874,0.2592077 0.071754,-0.06606 -0.1138804,0.1195744 -0.012374,0.012375 -0.021791,0.027485 -0.034164,0.039858 -0.044523,0.044523 -0.1111599,0.094247 -0.1366562,0.1537382 -0.012936,0.030181 -0.011388,0.076379 -0.011388,0.1081866 0,0.050388 -0.00465,0.1040947 0.00569,0.1537385 0.016042,0.077003 0.058646,0.1451856 0.074022,0.2220666 0.00273,0.013674 -0.00569,0.026025 -0.00569,0.039858"
       id="path5" />
  </g>
</svg>
